<?xml version="1.0" encoding="iso-8859-1"?>
<!-- Generator: Adobe Illustrator 19.0.0, SVG Export Plug-In . SVG Version: 6.00 Build 0)  -->
<svg version="1.1" id="Layer_1" xmlns="http://www.w3.org/2000/svg" xmlns:xlink="http://www.w3.org/1999/xlink" x="0px" y="0px"
	 viewBox="0 0 512.001 512.001" style="enable-background:new 0 0 512.001 512.001;" xml:space="preserve">
<path style="fill:#CFDBE6;" d="M494.255,217.094c-11.443-12.371-26.997-19.906-43.798-21.217l-189.545-14.791
	c-3.447-0.269-6.945-0.268-10.396,0.001L61.531,195.87c-16.798,1.314-32.35,8.85-43.791,21.22C6.301,229.46,0,245.552,0,262.402
	v183.313c0,19.879,16.173,36.052,36.052,36.052h439.897c19.879,0,36.052-16.173,36.052-36.052V262.411
	C512,245.559,505.698,229.465,494.255,217.094z"/>
<path style="fill:#EFF4F4;" d="M256,180.886c-1.831-0.008-3.664,0.06-5.484,0.202L61.531,195.87
	c-16.798,1.314-32.35,8.85-43.791,21.22C6.301,229.46,0,245.552,0,262.402v183.313c0,19.879,16.173,36.052,36.052,36.052H256
	V180.886z"/>
<path style="fill:#232575;" d="M425.151,423.779H83.846c-14.609,0-26.452,11.843-26.452,26.452v31.539h394.208v-31.539
	C451.603,435.622,439.76,423.779,425.151,423.779z"/>
<path style="fill:#365E94;" d="M256,423.779H83.846c-14.609,0-26.452,11.843-26.452,26.452v31.539H256V423.779z"/>
<path style="fill:#A8BCCC;" d="M512,291.266v-28.855c0-16.852-6.302-32.946-17.745-45.317s-26.997-19.906-43.798-21.217
	l-189.545-14.791c-3.447-0.269-6.945-0.268-10.396,0.001L61.531,195.87c-16.798,1.314-32.35,8.85-43.791,21.22
	C6.301,229.46,0,245.552,0,262.402v29.099C74.026,292.107,439.963,291.41,512,291.266z"/>
<path style="fill:#BDCFDF;" d="M256,291.665v-110.78c-1.831-0.008-3.664,0.06-5.484,0.202L61.531,195.87
	c-16.798,1.314-32.35,8.85-43.791,21.22C6.301,229.46,0,245.552,0,262.402v29.099L256,291.665z"/>
<path style="fill:#CFDBE6;" d="M458.957,238.539h-14.106c-5.522,0-10,4.477-10,10s4.478,10,10,10h14.106c5.522,0,10-4.478,10-10
	S464.479,238.539,458.957,238.539z"/>
<path style="fill:#FFDB58;" d="M413.404,238.539h-14.106c-5.522,0-10,4.477-10,10s4.478,10,10,10h14.106c5.522,0,10-4.478,10-10
	S418.927,238.539,413.404,238.539z"/>
<g>
	<path style="fill:#CFDBE6;" d="M256,116.787c-11.432,0-22.179,4.452-30.263,12.535c-5.858,5.858-5.858,15.355,0,21.213
		c5.857,5.858,15.355,5.857,21.213,0c2.417-2.417,5.632-3.749,9.05-3.749c3.419,0,6.633,1.332,9.05,3.749
		c2.929,2.929,6.768,4.394,10.606,4.394s7.678-1.465,10.606-4.393c5.858-5.858,5.858-15.355,0-21.213
		C278.18,121.239,267.433,116.787,256,116.787z"/>
	<path style="fill:#CFDBE6;" d="M203.889,94.504c-5.858,5.858-5.858,15.355,0,21.213c2.929,2.929,6.768,4.394,10.606,4.394
		s7.678-1.464,10.606-4.394c17.037-17.036,44.759-17.037,61.796,0c5.857,5.857,15.355,5.857,21.213,0
		c5.858-5.858,5.858-15.355,0-21.213C279.376,65.77,232.622,65.77,203.889,94.504z"/>
	<path style="fill:#CFDBE6;" d="M332.494,61.866c-42.178-42.18-110.81-42.178-152.987,0c-5.858,5.858-5.858,15.355,0,21.213
		c5.857,5.858,15.355,5.858,21.213,0c30.481-30.48,80.078-30.482,110.562,0c2.929,2.929,6.768,4.394,10.606,4.394
		s7.678-1.464,10.606-4.394C338.352,77.221,338.352,67.724,332.494,61.866z"/>
</g>
<path style="fill:#9EACBA;" d="M403.38,423.779H115.475l-5.499,16.156c-2.208,6.487,2.614,13.222,9.467,13.222h279.971
	c6.852,0,11.675-6.736,9.467-13.222L403.38,423.779z"/>
<path style="fill:#BDCFDF;" d="M256,423.779H115.475l-5.499,16.156c-2.208,6.487,2.614,13.222,9.467,13.222H256V423.779z"/>
<g>
</g>
<g>
</g>
<g>
</g>
<g>
</g>
<g>
</g>
<g>
</g>
<g>
</g>
<g>
</g>
<g>
</g>
<g>
</g>
<g>
</g>
<g>
</g>
<g>
</g>
<g>
</g>
<g>
</g>
</svg>
