<?xml version="1.0" encoding="iso-8859-1"?>
<!-- Generator: Adobe Illustrator 19.0.0, SVG Export Plug-In . SVG Version: 6.00 Build 0)  -->
<svg version="1.1" id="Layer_1" xmlns="http://www.w3.org/2000/svg" xmlns:xlink="http://www.w3.org/1999/xlink" x="0px" y="0px"
	 viewBox="0 0 512 512" style="enable-background:new 0 0 512 512;" xml:space="preserve">
<path style="fill:#12C5DE;" d="M355.563,13.617C355.266,6.012,349.015,0,341.404,0H156.253c-7.611,0-13.862,6.012-14.159,13.617
	l-9.446,241.83c-0.014,0.369-0.014,0.738,0,1.106l9.446,241.83c0.297,7.605,6.548,13.617,14.159,13.617h185.151
	c7.611,0,13.862-6.012,14.159-13.617l9.446-241.83c0.014-0.369,0.014-0.738,0-1.106L355.563,13.617z"/>
<g>
	<path style="fill:#69E7F5;" d="M249.773,0h-93.52c-7.611,0-13.862,6.012-14.159,13.617l-9.446,241.83
		c-0.014,0.369-0.014,0.738,0,1.106l9.446,241.83c0.297,7.605,6.548,13.617,14.159,13.617h93.52V0L249.773,0z"/>
	<path style="fill:#69E7F5;" d="M395.249,198.436c-7.826,0-14.17-6.344-14.17-14.17v-46.288c0-7.826,6.344-14.17,14.17-14.17
		s14.17,6.344,14.17,14.17v46.288C409.419,192.092,403.075,198.436,395.249,198.436z"/>
</g>
<polygon style="fill:#CFDBE6;" points="141.93,17.778 141.193,36.671 356.464,36.671 355.726,17.778 "/>
<polygon style="fill:#EFF4F4;" points="141.93,17.778 141.193,36.671 249.773,36.671 249.773,17.778 "/>
<path style="fill:#CFDBE6;" d="M348.253,84.526H149.404c-25.818,0-46.823,21.005-46.823,46.823v241.864
	c0,25.818,21.005,46.823,46.823,46.823h198.849c25.818,0,46.823-21.005,46.823-46.823V131.349
	C395.076,105.53,374.071,84.526,348.253,84.526z"/>
<path style="fill:#EFF4F4;" d="M249.773,84.526H149.404c-25.818,0-46.823,21.005-46.823,46.823v241.864
	c0,25.818,21.005,46.823,46.823,46.823h100.369L249.773,84.526L249.773,84.526z"/>
<path style="fill:#FFDB58;" d="M209.651,217.699c18.179,0,32.97-14.79,32.97-32.97c0-18.179-14.79-32.97-32.97-32.97
	s-32.97,14.79-32.97,32.97S191.471,217.699,209.651,217.699z"/>
<path style="fill:#69E7F5;" d="M288.622,217.699c18.18,0,32.97-14.79,32.97-32.97c0-18.179-14.79-32.97-32.97-32.97
	s-32.97,14.79-32.97,32.97C255.652,202.909,270.442,217.699,288.622,217.699z"/>
<path style="fill:#FFDB58;" d="M209.651,286.863c-18.18,0-32.97,14.79-32.97,32.97c0,18.179,14.79,32.97,32.97,32.97
	c18.179,0,32.97-14.79,32.97-32.97C242.62,301.653,227.83,286.863,209.651,286.863z"/>
<path style="fill:#9EACBA;" d="M288.149,286.863c-18.18,0-32.97,14.79-32.97,32.97c0,18.179,14.79,32.97,32.97,32.97
	s32.97-14.79,32.97-32.97S306.329,286.863,288.149,286.863z"/>
<path style="fill:#CFDBE6;" d="M203.299,252.281c0-18.18-14.79-32.97-32.97-32.97c-18.18,0-32.97,14.79-32.97,32.97
	s14.79,32.97,32.97,32.97C188.509,285.251,203.299,270.461,203.299,252.281z"/>
<path style="fill:#FF4429;" d="M215.858,256c0,18.18,14.79,32.97,32.97,32.97c18.18,0,32.97-14.79,32.97-32.97
	s-14.79-32.97-32.97-32.97S215.858,237.82,215.858,256z"/>
<path style="fill:#12C5DE;" d="M328.272,219.311c-18.179,0-32.97,14.79-32.97,32.97s14.79,32.97,32.97,32.97
	s32.97-14.79,32.97-32.97S346.452,219.311,328.272,219.311z"/>
<path style="fill:#FFBD52;" d="M249.301,354.303c-7.813,0-14.17,6.357-14.17,14.17c0,7.813,6.357,14.17,14.17,14.17
	s14.17-6.357,14.17-14.17C263.47,360.66,257.114,354.303,249.301,354.303z"/>
<path style="fill:#12C5DE;" d="M249.773,150.259c7.813,0,14.17-6.357,14.17-14.17s-6.357-14.17-14.17-14.17
	c-7.813,0-14.17,6.357-14.17,14.17C235.603,143.902,241.96,150.259,249.773,150.259z"/>
<polygon style="fill:#CFDBE6;" points="140.903,467.891 141.641,486.784 356.013,486.784 356.754,467.891 "/>
<polygon style="fill:#EFF4F4;" points="140.903,467.891 141.641,486.784 249.773,486.784 249.773,467.891 "/>
<g>
</g>
<g>
</g>
<g>
</g>
<g>
</g>
<g>
</g>
<g>
</g>
<g>
</g>
<g>
</g>
<g>
</g>
<g>
</g>
<g>
</g>
<g>
</g>
<g>
</g>
<g>
</g>
<g>
</g>
</svg>
