<?xml version="1.0" encoding="iso-8859-1"?>
<!-- Generator: Adobe Illustrator 19.0.0, SVG Export Plug-In . SVG Version: 6.00 Build 0)  -->
<svg version="1.1" id="Layer_1" xmlns="http://www.w3.org/2000/svg" xmlns:xlink="http://www.w3.org/1999/xlink" x="0px" y="0px"
	 viewBox="0 0 512 512" style="enable-background:new 0 0 512 512;" xml:space="preserve">
<path style="fill:#CFDBE6;" d="M233.053,289.694h92.928l-61.684-47.939c-2.379-1.641-5.201-2.52-8.092-2.52h-9.167
	c-7.872,0-14.254,6.382-14.254,14.254L233.053,289.694z"/>
<path style="fill:#D9150B;" d="M88.603,256.151H53.748c-7.872,0-14.254,6.382-14.254,14.254s6.382,14.254,14.254,14.254h34.856
	c7.872,0,14.254-6.382,14.254-14.254S96.475,256.151,88.603,256.151z"/>
<path style="fill:#9EACBA;" d="M153.036,245.829c-7.872,0-14.254,6.382-14.254,14.254v32.739c0,7.872,6.382,14.254,14.254,14.254
	s14.254-6.382,14.254-14.254v-32.739C167.289,252.211,160.908,245.829,153.036,245.829z"/>
<path style="fill:#BDCFDF;" d="M153.036,245.829c-7.872,0-14.254,6.382-14.254,14.254v32.739c0,7.872,6.382,14.254,14.254,14.254
	V245.829z"/>
<path style="fill:#232575;" d="M204.867,274.588c-7.872,0-14.254,6.382-14.254,14.254v11.371c0,7.872,6.382,14.254,14.254,14.254
	s14.254-6.382,14.254-14.254v-11.372C219.121,280.969,212.739,274.588,204.867,274.588z"/>
<path style="fill:#D9150B;" d="M505.687,351.589l-13.524-9.075l-10.352-28.595c-1.787-4.936-6.142-8.49-11.336-9.252
	l-145.388-15.974H131.238v-35.564c0-5.176-2.805-9.945-7.33-12.459c-4.524-2.515-10.056-2.378-14.45,0.354l-92.642,57.607
	c-4.183,2.601-6.727,7.179-6.727,12.105v41.161l-8.606,17.372C0.507,371.238,0,373.402,0,375.598c0,9.581,4.293,17.074,9.263,25.749
	c2.654,4.633,5.663,9.885,8.923,16.766c2.359,4.977,7.374,8.15,12.881,8.15h447.305c5.834,0,11.079-3.555,13.239-8.974
	l19.373-48.583C513.474,362.464,511.266,355.333,505.687,351.589z"/>
<path style="fill:#FF4429;" d="M204.867,288.694h-73.63V253.13c0-5.176-2.805-9.945-7.33-12.459
	c-4.524-2.515-10.056-2.378-14.45,0.354l-92.642,57.607c-4.183,2.601-6.727,7.179-6.727,12.105v41.161L1.482,369.27
	C0.507,371.238,0,373.402,0,375.598c0,9.581,4.293,17.074,9.263,25.749c2.654,4.633,5.663,9.885,8.923,16.766
	c2.359,4.977,7.374,8.15,12.881,8.15h173.801L204.867,288.694L204.867,288.694z"/>
<path style="fill:#232575;" d="M120.422,364.449c-23.223,0-42.116,18.894-42.116,42.116c0,23.223,18.894,42.116,42.116,42.116
	s42.116-18.894,42.116-42.116S143.645,364.449,120.422,364.449z"/>
<path style="fill:#365E94;" d="M120.422,364.449c-23.223,0-42.116,18.894-42.116,42.116c0,23.223,18.894,42.116,42.116,42.116
	V364.449z"/>
<path style="fill:#BDCFDF;" d="M212.298,371.461h-14.862c-5.248,0-9.503-4.255-9.503-9.503s4.255-9.503,9.503-9.503h14.862
	c5.248,0,9.502,4.255,9.502,9.503S217.546,371.461,212.298,371.461z"/>
<path style="fill:#232575;" d="M396.762,364.449c-23.223,0-42.116,18.894-42.116,42.116c0,23.223,18.894,42.116,42.116,42.116
	s42.116-18.894,42.116-42.116S419.984,364.449,396.762,364.449z"/>
<path style="fill:#365E94;" d="M396.762,364.449c-23.223,0-42.116,18.894-42.116,42.116c0,23.223,18.894,42.116,42.116,42.116
	V364.449z"/>
<g>
	<path style="fill:#CFDBE6;" d="M256,149.875c-11.432,0-22.179,4.452-30.263,12.535c-5.858,5.858-5.858,15.355,0,21.213
		c5.857,5.858,15.355,5.857,21.213,0c2.417-2.417,5.632-3.749,9.05-3.749c3.419,0,6.633,1.332,9.05,3.749
		c2.929,2.929,6.768,4.394,10.606,4.394s7.678-1.465,10.606-4.393c5.858-5.858,5.858-15.355,0-21.213
		C278.18,154.327,267.433,149.875,256,149.875z"/>
	<path style="fill:#CFDBE6;" d="M203.889,127.591c-5.858,5.858-5.858,15.355,0,21.213c2.929,2.929,6.768,4.394,10.606,4.394
		s7.678-1.464,10.606-4.394c17.037-17.036,44.759-17.037,61.796,0c5.857,5.857,15.355,5.857,21.213,0
		c5.858-5.858,5.858-15.355,0-21.213C279.376,98.857,232.622,98.858,203.889,127.591z"/>
	<path style="fill:#CFDBE6;" d="M332.494,94.954c-42.178-42.18-110.81-42.178-152.987,0c-5.858,5.858-5.858,15.355,0,21.213
		c5.857,5.858,15.355,5.858,21.213,0c30.481-30.48,80.078-30.482,110.562,0c2.929,2.929,6.768,4.394,10.606,4.394
		s7.678-1.464,10.606-4.394C338.352,110.309,338.352,100.812,332.494,94.954z"/>
</g>
<g>
	<path style="fill:#BDCFDF;" d="M120.422,388.206c-10.124,0-18.36,8.236-18.36,18.36c0,10.124,8.236,18.36,18.36,18.36
		s18.36-8.236,18.36-18.36S130.545,388.206,120.422,388.206z"/>
	<path style="fill:#BDCFDF;" d="M396.762,388.206c-10.124,0-18.36,8.236-18.36,18.36c0,10.124,8.236,18.36,18.36,18.36
		s18.36-8.236,18.36-18.36C415.122,396.442,406.885,388.206,396.762,388.206z"/>
</g>
<g>
</g>
<g>
</g>
<g>
</g>
<g>
</g>
<g>
</g>
<g>
</g>
<g>
</g>
<g>
</g>
<g>
</g>
<g>
</g>
<g>
</g>
<g>
</g>
<g>
</g>
<g>
</g>
<g>
</g>
</svg>
