<?xml version="1.0" encoding="iso-8859-1"?>
<!-- Generator: Adobe Illustrator 19.0.0, SVG Export Plug-In . SVG Version: 6.00 Build 0)  -->
<svg version="1.1" id="Layer_1" xmlns="http://www.w3.org/2000/svg" xmlns:xlink="http://www.w3.org/1999/xlink" x="0px" y="0px"
	 viewBox="0 0 512 512" style="enable-background:new 0 0 512 512;" xml:space="preserve">
<path style="fill:#232575;" d="M479.107,98.586c0-7.84-6.356-14.196-14.196-14.196H349.842c-7.84,0-14.196,6.356-14.196,14.196
	v68.043c0,7.84,6.356,14.196,14.196,14.196s14.196-6.356,14.196-14.196v-53.847h100.874
	C472.751,112.782,479.107,106.426,479.107,98.586z"/>
<path style="fill:#12C5DE;" d="M464.912,51.498c-25.964,0-47.088,21.125-47.088,47.089s21.124,47.088,47.088,47.088
	c25.964,0,47.088-21.124,47.088-47.088S490.876,51.498,464.912,51.498z"/>
<path style="fill:#69E7F5;" d="M464.912,51.498c-25.964,0-47.088,21.125-47.088,47.089s21.124,47.088,47.088,47.088L464.912,51.498
	L464.912,51.498z"/>
<path style="fill:#365E94;" d="M32.893,98.586c0-7.84,6.356-14.196,14.196-14.196h114.134c7.84,0,14.196,6.356,14.196,14.196v68.043
	c0,7.84-6.356,14.196-14.196,14.196c-7.84,0-14.196-6.356-14.196-14.196v-53.847H47.088
	C39.249,112.782,32.893,106.426,32.893,98.586z"/>
<path style="fill:#69E7F5;" d="M47.088,51.498c25.964,0,47.088,21.125,47.088,47.089s-21.124,47.088-47.088,47.088
	S0,124.551,0,98.587S21.124,51.498,47.088,51.498z"/>
<path style="fill:#12C5DE;" d="M47.088,51.498c25.964,0,47.088,21.125,47.088,47.089s-21.124,47.088-47.088,47.088V51.498z"/>
<path style="fill:#365E94;" d="M126.507,279.549H55.896c-7.84,0-14.196,6.356-14.196,14.196s6.356,14.196,14.196,14.196h70.611
	c7.84,0,14.196-6.356,14.196-14.196S134.347,279.549,126.507,279.549z"/>
<path style="fill:#12C5DE;" d="M47.088,246.657C21.124,246.657,0,267.78,0,293.745c0,25.964,21.124,47.088,47.088,47.088
	s47.088-21.124,47.088-47.088C94.176,267.78,73.052,246.657,47.088,246.657z"/>
<path style="fill:#69E7F5;" d="M47.088,246.657C21.124,246.657,0,267.78,0,293.745c0,25.964,21.124,47.088,47.088,47.088V246.657z"
	/>
<path style="fill:#232575;" d="M455.169,279.549h-80.998c-7.84,0-14.196,6.356-14.196,14.196s6.356,14.196,14.196,14.196h80.998
	c7.84,0,14.196-6.356,14.196-14.196S463.009,279.549,455.169,279.549z"/>
<path style="fill:#365E94;" d="M126.507,399.217H55.896c-7.84,0-14.196,6.356-14.196,14.196c0,7.84,6.356,14.196,14.196,14.196
	h70.611c7.84,0,14.196-6.356,14.196-14.196S134.347,399.217,126.507,399.217z"/>
<path style="fill:#232575;" d="M448.566,399.217h-70.611c-7.84,0-14.196,6.356-14.196,14.196c0,7.84,6.356,14.196,14.196,14.196
	h70.611c7.84,0,14.196-6.356,14.196-14.196S456.407,399.217,448.566,399.217z"/>
<path style="fill:#FFBD52;" d="M414.103,180.105l-151.517-80.55c-4.41-2.344-9.698-2.344-14.108,0l-151.516,80.55
	c-4.907,2.609-7.974,7.712-7.974,13.269v34.711c0,8.299,6.728,15.027,15.027,15.027h16.84V436.16
	c0,8.299,6.728,15.027,15.027,15.027h239.3c8.299,0,15.027-6.728,15.027-15.027V243.113h16.84c8.299,0,15.027-6.728,15.027-15.027
	v-34.711C422.077,187.817,419.01,182.714,414.103,180.105z"/>
<path style="fill:#D9150B;" d="M120.855,243.113v193.047c0,8.299,6.728,15.027,15.027,15.027h239.3
	c8.299,0,15.027-6.728,15.027-15.027V243.113H120.855z"/>
<path style="fill:#FFDB58;" d="M255.533,97.796c-2.424,0-4.849,0.586-7.054,1.758l-151.517,80.55
	c-4.907,2.609-7.974,7.712-7.974,13.269v34.711c0,8.299,6.728,15.027,15.027,15.027h16.84V436.16
	c0,8.299,6.728,15.027,15.027,15.027h119.65L255.533,97.796z"/>
<path style="fill:#FF4429;" d="M120.855,243.202v192.959c0,8.299,6.728,15.027,15.027,15.027h119.65V243.202H120.855z"/>
<path style="fill:#232575;" d="M276.004,359.451H235.06c-7.84,0-14.196,6.356-14.196,14.196v77.541h69.335v-77.541
	C290.2,365.806,283.845,359.451,276.004,359.451z"/>
<path style="fill:#365E94;" d="M255.533,359.451h-20.472c-7.84,0-14.196,6.356-14.196,14.196v77.541h34.668V359.451z"/>
<path style="fill:#12C5DE;" d="M464.912,246.656c-25.964,0-47.088,21.125-47.088,47.089s21.124,47.088,47.088,47.088
	c25.964,0,47.088-21.124,47.088-47.088S490.876,246.656,464.912,246.656z"/>
<path style="fill:#69E7F5;" d="M464.912,246.656c-25.964,0-47.088,21.125-47.088,47.089s21.124,47.088,47.088,47.088
	L464.912,246.656L464.912,246.656z"/>
<path style="fill:#12C5DE;" d="M458.309,366.325c-25.964,0-47.088,21.125-47.088,47.089s21.124,47.088,47.088,47.088
	s47.088-21.124,47.088-47.088S484.273,366.325,458.309,366.325z"/>
<path style="fill:#69E7F5;" d="M458.309,366.325c-25.964,0-47.088,21.125-47.088,47.089s21.124,47.088,47.088,47.088
	L458.309,366.325L458.309,366.325z"/>
<path style="fill:#12C5DE;" d="M47.088,366.325C21.124,366.325,0,387.45,0,413.414s21.124,47.088,47.088,47.088
	s47.088-21.124,47.088-47.088S73.052,366.325,47.088,366.325z"/>
<path style="fill:#69E7F5;" d="M47.088,366.325C21.124,366.325,0,387.45,0,413.414s21.124,47.088,47.088,47.088V366.325z"/>
<g>
</g>
<g>
</g>
<g>
</g>
<g>
</g>
<g>
</g>
<g>
</g>
<g>
</g>
<g>
</g>
<g>
</g>
<g>
</g>
<g>
</g>
<g>
</g>
<g>
</g>
<g>
</g>
<g>
</g>
</svg>
