<?xml version="1.0" encoding="iso-8859-1"?>
<!-- Generator: Adobe Illustrator 19.0.0, SVG Export Plug-In . SVG Version: 6.00 Build 0)  -->
<svg version="1.1" id="Layer_1" xmlns="http://www.w3.org/2000/svg" xmlns:xlink="http://www.w3.org/1999/xlink" x="0px" y="0px"
	 viewBox="0 0 512.002 512.002" style="enable-background:new 0 0 512.002 512.002;" xml:space="preserve">
<path style="fill:#12C5DE;" d="M356.379,0H155.623c-21.215,0-38.414,17.198-38.414,38.414V512h277.583V38.414
	C394.793,17.198,377.594,0,356.379,0z"/>
<path style="fill:#69E7F5;" d="M262.244,0H155.623c-21.215,0-38.414,17.198-38.414,38.414V512h145.034V0H262.244z"/>
<rect x="117.211" y="456.71" style="fill:#CFDBE6;" width="277.58" height="55.28"/>
<rect x="117.211" y="488.13" style="fill:#232575;" width="277.58" height="23.872"/>
<rect x="117.211" y="456.71" style="fill:#EFF4F4;" width="145.03" height="55.28"/>
<rect x="117.211" y="488.13" style="fill:#365E94;" width="145.03" height="23.872"/>
<path style="fill:#CFDBE6;" d="M394.793,38.414C394.793,17.232,377.56,0,356.379,0H155.623c-21.181,0-38.414,17.232-38.414,38.414
	v151.051h277.583L394.793,38.414L394.793,38.414z"/>
<path style="fill:#EFF4F4;" d="M262.244,0H155.623c-21.181,0-38.414,17.232-38.414,38.414v151.051h145.034V0H262.244z"/>
<path style="fill:#9EACBA;" d="M185.677,119.271c-5.234,0-9.476-4.243-9.476-9.476V79.671c0-5.233,4.243-9.476,9.476-9.476
	c5.234,0,9.476,4.243,9.476,9.476v30.124C195.154,115.028,190.911,119.271,185.677,119.271z"/>
<path style="fill:#EFF4F4;" d="M185.677,321.705c-5.234,0-9.476-4.243-9.476-9.476v-63.023c0-5.234,4.243-9.476,9.476-9.476
	c5.234,0,9.476,4.243,9.476,9.476v63.023C195.154,317.463,190.911,321.705,185.677,321.705z"/>
<g>
</g>
<g>
</g>
<g>
</g>
<g>
</g>
<g>
</g>
<g>
</g>
<g>
</g>
<g>
</g>
<g>
</g>
<g>
</g>
<g>
</g>
<g>
</g>
<g>
</g>
<g>
</g>
<g>
</g>
</svg>
