<?xml version="1.0" encoding="iso-8859-1"?>
<!-- Generator: Adobe Illustrator 19.0.0, SVG Export Plug-In . SVG Version: 6.00 Build 0)  -->
<svg version="1.1" id="Layer_1" xmlns="http://www.w3.org/2000/svg" xmlns:xlink="http://www.w3.org/1999/xlink" x="0px" y="0px"
	 viewBox="0 0 512.001 512.001" style="enable-background:new 0 0 512.001 512.001;" xml:space="preserve">
<path style="fill:#BDCFDF;" d="M309.14,226.844h-18.896c-2.162,0-3.914-1.752-3.914-3.914v-27.701c0-2.162,1.752-3.914,3.914-3.914
	h18.896V226.844z"/>
<path style="fill:#6A8092;" d="M508.087,226.844h-18.896v-35.529h18.896c2.162,0,3.914,1.752,3.914,3.914v27.701
	C512,225.092,510.249,226.844,508.087,226.844z"/>
<path style="fill:#BDCFDF;" d="M309.14,268.895h-18.896c-2.162,0-3.914-1.752-3.914-3.914V237.28c0-2.162,1.752-3.914,3.914-3.914
	h18.896V268.895z"/>
<path style="fill:#FFBD52;" d="M212.93,75.91H25.023c-8.391,0-15.194,6.803-15.194,15.194v177.779
	c0,8.391,6.803,15.194,15.194,15.194h187.908c8.391,0,15.194-6.803,15.194-15.194V91.103C228.124,82.712,221.322,75.91,212.93,75.91
	z"/>
<path style="fill:#FFDB58;" d="M118.976,75.91H25.023c-8.391,0-15.194,6.803-15.194,15.194v177.779
	c0,8.391,6.803,15.194,15.194,15.194h93.954V75.91H118.976z"/>
<path style="fill:#6A8092;" d="M138.328,198.666H99.625c-4.306,0-7.795,3.491-7.795,7.795v77.614h54.294v-77.614
	C146.123,202.156,142.633,198.666,138.328,198.666z"/>
<path style="fill:#9EACBA;" d="M118.976,198.666H99.625c-4.306,0-7.795,3.491-7.795,7.795v77.614h27.147v-85.409H118.976z"/>
<path style="fill:#D9150B;" d="M107.405,16.531L9.034,68.827C3.474,71.783,0,77.565,0,83.861l0,0
	c0,9.404,7.623,17.026,17.026,17.026h203.901c9.403,0,17.026-7.623,17.026-17.026l0,0c0-6.296-3.474-12.078-9.034-15.034
	l-98.37-52.296C123.313,12.685,114.64,12.685,107.405,16.531z"/>
<path style="fill:#FF4429;" d="M107.405,16.531L9.034,68.827C3.474,71.783,0,77.565,0,83.861l0,0
	c0,9.404,7.623,17.026,17.026,17.026h101.951l0.001-87.24C115,13.647,111.023,14.608,107.405,16.531z"/>
<g>
	<path style="fill:#CFDBE6;" d="M103.782,336.056c8.391,0,15.194-6.803,15.194-15.194v-6.584c0-8.391-6.803-15.194-15.194-15.194
		s-15.194,6.803-15.194,15.194v6.584C88.589,329.253,95.391,336.056,103.782,336.056z"/>
	<path style="fill:#CFDBE6;" d="M103.782,397.956c8.391,0,15.194-6.803,15.194-15.194v-13.874c0-8.391-6.803-15.194-15.194-15.194
		s-15.194,6.803-15.194,15.194v13.874C88.589,391.154,95.391,397.956,103.782,397.956z"/>
	<path style="fill:#CFDBE6;" d="M117.304,423.852c-2.52-4.902-7.629-8.256-13.521-8.256c-8.391,0-15.194,6.803-15.194,15.194v6.584
		c0,8.391,6.803,15.194,15.194,15.194h6.584c8.391,0,15.194-6.803,15.194-15.194C125.56,431.482,122.206,426.373,117.304,423.852z"
		/>
	<path style="fill:#CFDBE6;" d="M165.819,422.179h-12.43c-8.391,0-15.194,6.803-15.194,15.194s6.803,15.194,15.194,15.194h12.43
		c8.391,0,15.194-6.803,15.194-15.194S174.21,422.179,165.819,422.179z"/>
	<path style="fill:#CFDBE6;" d="M221.269,422.179H208.84c-8.391,0-15.194,6.803-15.194,15.194s6.803,15.194,15.194,15.194h12.428
		c8.391,0,15.194-6.803,15.194-15.194S229.66,422.179,221.269,422.179z"/>
	<path style="fill:#CFDBE6;" d="M270.874,422.179h-6.584c-8.391,0-15.194,6.803-15.194,15.194s6.803,15.194,15.194,15.194h6.584
		c8.391,0,15.194-6.803,15.194-15.194S279.266,422.179,270.874,422.179z"/>
	<path style="fill:#CFDBE6;" d="M463.1,116.527H337.396c-23.682,0-42.949,19.267-42.949,42.949v295.931
		c0,23.682,19.267,42.948,42.949,42.948H463.1c23.682,0,42.948-19.267,42.948-42.948V159.476
		C506.048,135.794,486.782,116.527,463.1,116.527z"/>
</g>
<path style="fill:#EFF4F4;" d="M400.248,116.527h-62.851c-23.682,0-42.949,19.267-42.949,42.949v295.931
	c0,23.682,19.267,42.948,42.949,42.948h62.851V116.527z"/>
<path style="fill:#232575;" d="M294.448,455.407c0,23.682,19.267,42.948,42.949,42.948H463.1c23.682,0,42.948-19.267,42.948-42.948
	v-14.001h-211.6V455.407z"/>
<path style="fill:#365E94;" d="M294.448,455.407c0,23.682,19.267,42.948,42.949,42.948h62.851v-56.948h-105.8V455.407z"/>
<path style="fill:#232575;" d="M506.048,159.476c0-23.682-19.267-42.949-42.948-42.949H337.396
	c-23.682,0-42.949,19.267-42.949,42.949v19.44h211.6L506.048,159.476L506.048,159.476z"/>
<path style="fill:#365E94;" d="M400.248,116.527h-62.851c-23.682,0-42.949,19.267-42.949,42.949v19.44h105.8V116.527z"/>
<path style="fill:#BDCFDF;" d="M411.645,455.605h-22.795c-5.593,0-10.129,4.536-10.129,10.129s4.536,10.129,10.129,10.129h22.795
	c5.593,0,10.129-4.536,10.129-10.129S417.239,455.605,411.645,455.605z"/>
<g>
</g>
<g>
</g>
<g>
</g>
<g>
</g>
<g>
</g>
<g>
</g>
<g>
</g>
<g>
</g>
<g>
</g>
<g>
</g>
<g>
</g>
<g>
</g>
<g>
</g>
<g>
</g>
<g>
</g>
</svg>
