<?xml version="1.0" encoding="iso-8859-1"?>
<!-- Generator: Adobe Illustrator 19.0.0, SVG Export Plug-In . SVG Version: 6.00 Build 0)  -->
<svg version="1.1" id="Layer_1" xmlns="http://www.w3.org/2000/svg" xmlns:xlink="http://www.w3.org/1999/xlink" x="0px" y="0px"
	 viewBox="0 0 512 512" style="enable-background:new 0 0 512 512;" xml:space="preserve">
<path style="fill:#232575;" d="M295.321,383.529h-78.642c-7.826,0-14.17,6.344-14.17,14.17v30.956c0,7.826,6.344,14.17,14.17,14.17
	h78.642c7.826,0,14.17-6.344,14.17-14.17v-30.956C309.491,389.873,303.147,383.529,295.321,383.529z"/>
<path style="fill:#365E94;" d="M256.42,383.529h-39.741c-7.826,0-14.17,6.344-14.17,14.17v30.956c0,7.826,6.344,14.17,14.17,14.17
	h39.741V383.529z"/>
<path style="fill:#9EACBA;" d="M379.494,449.177c-78.482-35.833-168.506-35.833-246.988,0c-7.119,3.25-10.255,11.656-7.005,18.775
	c3.25,7.118,11.656,10.254,18.775,7.005c71.002-32.417,152.446-32.417,223.447,0c1.908,0.871,3.908,1.284,5.876,1.284
	c5.377,0,10.519-3.077,12.899-8.288C389.749,460.833,386.613,452.428,379.494,449.177z"/>
<path style="fill:#BDCFDF;" d="M256.42,422.303c-42.266-0.06-84.543,8.898-123.914,26.874c-7.119,3.25-10.255,11.656-7.005,18.775
	c3.25,7.118,11.656,10.254,18.775,7.005c35.501-16.208,73.612-24.313,111.724-24.313l0.42,0.001V422.303z"/>
<path style="fill:#9EACBA;" d="M471.532,35.758H40.468C18.154,35.758,0,53.912,0,76.226v283.698
	c0,22.314,18.154,40.468,40.468,40.468h431.064c22.314,0,40.468-18.154,40.468-40.468V76.226
	C512,53.912,493.846,35.758,471.532,35.758z"/>
<path style="fill:#BDCFDF;" d="M256.42,35.758H40.468C18.154,35.758,0,53.912,0,76.226v283.698
	c0,22.314,18.154,40.468,40.468,40.468H256.42V35.758z"/>
<path style="fill:#CFDBE6;" d="M469.229,77.942H42.771c-3.913,0-7.085,3.172-7.085,7.085v266.096c0,3.913,3.172,7.085,7.085,7.085
	h426.458c3.913,0,7.085-3.172,7.085-7.085V85.027C476.314,81.114,473.142,77.942,469.229,77.942z"/>
<path style="fill:#EFF4F4;" d="M256.42,77.942H42.771c-3.913,0-7.085,3.172-7.085,7.085v266.096c0,3.913,3.172,7.085,7.085,7.085
	H256.42V77.942z"/>
<path style="fill:#12C5DE;" d="M91.941,267.282H310.26c7.826,0,14.17-6.344,14.17-14.17V136.931c0-7.826-6.344-14.17-14.17-14.17
	H91.941c-7.826,0-14.17,6.344-14.17,14.17v116.182C77.772,260.938,84.116,267.282,91.941,267.282z"/>
<path style="fill:#69E7F5;" d="M91.941,267.282H256.42V122.761H91.941c-7.826,0-14.17,6.344-14.17,14.17v116.182
	C77.772,260.938,84.116,267.282,91.941,267.282z"/>
<path style="fill:#FFBD52;" d="M420.059,122.761h-52.345c-7.826,0-14.17,6.344-14.17,14.17v116.182c0,7.826,6.344,14.17,14.17,14.17
	h52.345c7.826,0,14.17-6.344,14.17-14.17V136.931C434.228,129.105,427.884,122.761,420.059,122.761z"/>
<path style="fill:#D9150B;" d="M420.059,296.359H91.941c-7.826,0-14.17,6.344-14.17,14.17s6.344,14.17,14.17,14.17h328.117
	c7.826,0,14.17-6.344,14.17-14.17S427.884,296.359,420.059,296.359z"/>
<path style="fill:#FF4429;" d="M256.42,296.359H91.941c-7.826,0-14.17,6.344-14.17,14.17s6.344,14.17,14.17,14.17H256.42V296.359z"
	/>
<g>
</g>
<g>
</g>
<g>
</g>
<g>
</g>
<g>
</g>
<g>
</g>
<g>
</g>
<g>
</g>
<g>
</g>
<g>
</g>
<g>
</g>
<g>
</g>
<g>
</g>
<g>
</g>
<g>
</g>
</svg>
