<?xml version="1.0" encoding="iso-8859-1"?>
<!-- Generator: Adobe Illustrator 19.0.0, SVG Export Plug-In . SVG Version: 6.00 Build 0)  -->
<svg version="1.1" id="Layer_1" xmlns="http://www.w3.org/2000/svg" xmlns:xlink="http://www.w3.org/1999/xlink" x="0px" y="0px"
	 viewBox="0 0 512 512" style="enable-background:new 0 0 512 512;" xml:space="preserve">
<path style="fill:#CFDBE6;" d="M415.336,0H96.664C77.652,0,62.185,15.467,62.185,34.479v443.042
	c0,19.012,15.467,34.479,34.479,34.479h318.672c19.012,0,34.479-15.467,34.479-34.479V34.479C449.815,15.467,434.348,0,415.336,0z"
	/>
<path style="fill:#EFF4F4;" d="M256,0H96.664C77.652,0,62.185,15.467,62.185,34.479v443.042c0,19.012,15.467,34.479,34.479,34.479
	H256V0z"/>
<path style="fill:#232575;" d="M390.706,81.524h-283.39c-4.142,0-7.5,3.358-7.5,7.5v311.437c0,4.143,3.358,7.5,7.5,7.5h283.39
	c4.142,0,7.5-3.357,7.5-7.5V89.024C398.206,84.882,394.848,81.524,390.706,81.524z"/>
<path style="fill:#365E94;" d="M256,81.524H107.316c-4.142,0-7.5,3.358-7.5,7.5v311.437c0,4.143,3.358,7.5,7.5,7.5H256V81.524z"/>
<path style="fill:#9EACBA;" d="M270.5,23.692h-29c-8.284,0-15,6.716-15,15s6.716,15,15,15h29c8.284,0,15-6.716,15-15
	S278.784,23.692,270.5,23.692z"/>
<path style="fill:#BDCFDF;" d="M256,23.692h-14.5c-8.284,0-15,6.716-15,15s6.716,15,15,15H256V23.692z"/>
<circle style="fill:#9EACBA;" cx="256" cy="465.15" r="26.14"/>
<path style="fill:#BDCFDF;" d="M256,491.297c-14.439,0-26.143-11.705-26.143-26.143c0-14.439,11.705-26.143,26.143-26.143V491.297z"
	/>
<g>
	<path style="fill:#CFDBE6;" d="M256,299.652c-11.432,0-22.179,4.452-30.263,12.535c-5.858,5.858-5.858,15.355,0,21.213
		c5.857,5.858,15.355,5.857,21.213,0c2.417-2.417,5.632-3.749,9.05-3.749c3.419,0,6.633,1.332,9.05,3.749
		c2.929,2.929,6.768,4.394,10.606,4.394s7.678-1.465,10.606-4.393c5.858-5.858,5.858-15.355,0-21.213
		C278.18,304.104,267.433,299.652,256,299.652z"/>
	<path style="fill:#CFDBE6;" d="M203.889,277.368c-5.858,5.858-5.858,15.355,0,21.213c2.929,2.929,6.768,4.394,10.606,4.394
		s7.678-1.464,10.606-4.394c17.037-17.036,44.759-17.037,61.796,0c5.857,5.857,15.355,5.857,21.213,0
		c5.858-5.858,5.858-15.355,0-21.213C279.376,248.634,232.622,248.635,203.889,277.368z"/>
	<path style="fill:#CFDBE6;" d="M332.494,244.731c-42.178-42.18-110.81-42.178-152.987,0c-5.858,5.858-5.858,15.355,0,21.213
		c5.857,5.858,15.355,5.858,21.213,0c30.481-30.48,80.078-30.482,110.562,0c2.929,2.929,6.768,4.394,10.606,4.394
		s7.678-1.464,10.606-4.394C338.352,260.086,338.352,250.589,332.494,244.731z"/>
</g>
<g>
</g>
<g>
</g>
<g>
</g>
<g>
</g>
<g>
</g>
<g>
</g>
<g>
</g>
<g>
</g>
<g>
</g>
<g>
</g>
<g>
</g>
<g>
</g>
<g>
</g>
<g>
</g>
<g>
</g>
</svg>
