<?xml version="1.0" encoding="iso-8859-1"?>
<!-- Generator: Adobe Illustrator 19.0.0, SVG Export Plug-In . SVG Version: 6.00 Build 0)  -->
<svg version="1.1" id="Layer_1" xmlns="http://www.w3.org/2000/svg" xmlns:xlink="http://www.w3.org/1999/xlink" x="0px" y="0px"
	 viewBox="0 0 512 512" style="enable-background:new 0 0 512 512;" xml:space="preserve">
<path style="fill:#9EACBA;" d="M397.448,112.55c-7.826,0-14.17,6.344-14.17,14.17v48.67c0,7.826,6.344,14.17,14.17,14.17
	s14.17-6.344,14.17-14.17v-48.67C411.618,118.894,405.274,112.55,397.448,112.55z"/>
<g>
	<path style="fill:#BDCFDF;" d="M114.552,112.55c-7.826,0-14.17,6.344-14.17,14.17v24.335c0,7.826,6.344,14.17,14.17,14.17
		s14.17-6.344,14.17-14.17V126.72C128.722,118.894,122.378,112.55,114.552,112.55z"/>
	<path style="fill:#BDCFDF;" d="M114.552,179.471c-7.826,0-14.17,6.344-14.17,14.17v24.335c0,7.826,6.344,14.17,14.17,14.17
		s14.17-6.344,14.17-14.17v-24.335C128.722,185.815,122.378,179.471,114.552,179.471z"/>
</g>
<path style="fill:#232575;" d="M345.975,0h-179.95c-31.164,0-56.517,25.353-56.517,56.517v398.966
	c0,31.164,25.353,56.517,56.517,56.517h179.95c31.164,0,56.517-25.353,56.517-56.517V56.517C402.492,25.353,377.139,0,345.975,0z"/>
<path style="fill:#365E94;" d="M256,0h-89.975c-31.164,0-56.517,25.353-56.517,56.517v398.966c0,31.164,25.353,56.517,56.517,56.517
	H256V0z"/>
<path style="fill:#CFDBE6;" d="M361.93,403.981H150.07c-5.407,0-9.791-4.384-9.791-9.791V53.625c0-5.407,4.384-9.791,9.791-9.791
	h211.86c5.408,0,9.791,4.384,9.791,9.791V394.19C371.721,399.597,367.337,403.981,361.93,403.981z"/>
<path style="fill:#EFF4F4;" d="M256,403.981H150.07c-5.407,0-9.791-4.384-9.791-9.791V53.625c0-5.407,4.384-9.791,9.791-9.791H256
	V403.981z"/>
<circle style="fill:#9EACBA;" cx="256" cy="454.48" r="29.564"/>
<path style="fill:#BDCFDF;" d="M256,484.049c-16.328,0-29.564-13.236-29.564-29.564s13.236-29.564,29.564-29.564V484.049z"/>
<g>
	<path style="fill:#12C5DE;" d="M256,299.652c-11.432,0-22.179,4.452-30.263,12.535c-5.858,5.858-5.858,15.355,0,21.213
		c5.857,5.858,15.355,5.857,21.213,0c2.417-2.417,5.632-3.749,9.05-3.749c3.419,0,6.633,1.332,9.05,3.749
		c2.929,2.929,6.768,4.394,10.606,4.394s7.678-1.465,10.606-4.393c5.858-5.858,5.858-15.355,0-21.213
		C278.18,304.104,267.433,299.652,256,299.652z"/>
	<path style="fill:#12C5DE;" d="M203.889,277.368c-5.858,5.858-5.858,15.355,0,21.213c2.929,2.929,6.768,4.394,10.606,4.394
		c3.838,0,7.678-1.464,10.606-4.394c17.037-17.036,44.759-17.037,61.796,0c5.857,5.857,15.355,5.857,21.213,0
		c5.858-5.858,5.858-15.355,0-21.213C279.376,248.634,232.622,248.635,203.889,277.368z"/>
	<path style="fill:#12C5DE;" d="M332.494,244.731c-42.178-42.18-110.81-42.178-152.987,0c-5.858,5.858-5.858,15.355,0,21.213
		c5.857,5.858,15.355,5.858,21.213,0c30.481-30.48,80.078-30.482,110.562,0c2.929,2.929,6.768,4.394,10.606,4.394
		s7.678-1.464,10.606-4.394C338.352,260.086,338.352,250.589,332.494,244.731z"/>
</g>
<g>
</g>
<g>
</g>
<g>
</g>
<g>
</g>
<g>
</g>
<g>
</g>
<g>
</g>
<g>
</g>
<g>
</g>
<g>
</g>
<g>
</g>
<g>
</g>
<g>
</g>
<g>
</g>
<g>
</g>
</svg>
