<?xml version="1.0" encoding="iso-8859-1"?>
<!-- Generator: Adobe Illustrator 19.0.0, SVG Export Plug-In . SVG Version: 6.00 Build 0)  -->
<svg version="1.1" id="Layer_1" xmlns="http://www.w3.org/2000/svg" xmlns:xlink="http://www.w3.org/1999/xlink" x="0px" y="0px"
	 viewBox="0 0 512 512" style="enable-background:new 0 0 512 512;" xml:space="preserve">
<g>
	<path style="fill:#6A8092;" d="M86.435,388.349c-7.826,0-14.17,6.344-14.17,14.17v16.294c0,7.826,6.344,14.17,14.17,14.17
		s14.17-6.344,14.17-14.17v-16.294C100.605,394.693,94.261,388.349,86.435,388.349z"/>
	<path style="fill:#6A8092;" d="M425.565,388.349c-7.826,0-14.17,6.344-14.17,14.17v16.294c0,7.826,6.344,14.17,14.17,14.17
		s14.17-6.344,14.17-14.17v-16.294C439.734,394.693,433.39,388.349,425.565,388.349z"/>
</g>
<path style="fill:#232575;" d="M458.076,156.184c-6.943-3.608-15.499-0.904-19.107,6.041l-50.066,96.354
	c-3.608,6.944-0.904,15.499,6.041,19.107c2.088,1.085,4.321,1.599,6.521,1.599c5.119,0,10.062-2.783,12.586-7.639l50.066-96.354
	C467.724,168.347,465.02,159.792,458.076,156.184z"/>
<path style="fill:#FFBD52;" d="M462.287,253.815H49.713C22.301,253.815,0,276.117,0,303.528v58.33
	c0,27.412,22.301,49.713,49.713,49.713h412.574c27.412,0,49.713-22.301,49.713-49.713v-58.33
	C512,276.117,489.699,253.815,462.287,253.815z"/>
<path style="fill:#FFDB58;" d="M256,253.815H49.713C22.301,253.815,0,276.117,0,303.528v58.33c0,27.412,22.301,49.713,49.713,49.713
	H256V253.815z"/>
<path style="fill:#CFDBE6;" d="M101.077,327.459H77.461c-5.217,0-9.446,4.229-9.446,9.447c0,5.217,4.229,9.446,9.446,9.446h23.616
	c5.217,0,9.446-4.229,9.446-9.446C110.524,331.688,106.295,327.459,101.077,327.459z"/>
<path style="fill:#D9150B;" d="M161.535,327.459h-23.616c-5.217,0-9.447,4.229-9.447,9.447c0,5.217,4.229,9.446,9.447,9.446h23.616
	c5.217,0,9.447-4.229,9.447-9.446C170.982,331.688,166.752,327.459,161.535,327.459z"/>
<path style="fill:#12C5DE;" d="M443.985,327.459h-23.616c-5.217,0-9.447,4.229-9.447,9.447c0,5.217,4.229,9.446,9.447,9.446h23.616
	c5.217,0,9.447-4.229,9.447-9.446C453.432,331.688,449.202,327.459,443.985,327.459z"/>
<g>
	<path style="fill:#CFDBE6;" d="M256,165.573c-11.432,0-22.179,4.452-30.263,12.535c-5.858,5.858-5.858,15.355,0,21.213
		c5.857,5.858,15.355,5.857,21.213,0c2.417-2.417,5.632-3.749,9.05-3.749c3.419,0,6.633,1.332,9.05,3.749
		c2.929,2.929,6.768,4.394,10.606,4.394s7.678-1.465,10.606-4.393c5.858-5.858,5.858-15.355,0-21.213
		C278.18,170.025,267.433,165.573,256,165.573z"/>
	<path style="fill:#CFDBE6;" d="M203.889,143.289c-5.858,5.858-5.858,15.355,0,21.213c2.929,2.929,6.768,4.394,10.606,4.394
		s7.678-1.464,10.606-4.394c17.037-17.036,44.759-17.037,61.796,0c5.857,5.857,15.355,5.857,21.213,0
		c5.858-5.858,5.858-15.355,0-21.213C279.376,114.556,232.622,114.556,203.889,143.289z"/>
	<path style="fill:#CFDBE6;" d="M332.494,110.652c-42.178-42.18-110.81-42.178-152.987,0c-5.858,5.858-5.858,15.355,0,21.213
		c5.857,5.858,15.355,5.858,21.213,0c30.481-30.48,80.078-30.482,110.562,0c2.929,2.929,6.768,4.394,10.606,4.394
		s7.678-1.464,10.606-4.394C338.352,126.007,338.352,116.51,332.494,110.652z"/>
</g>
<g>
</g>
<g>
</g>
<g>
</g>
<g>
</g>
<g>
</g>
<g>
</g>
<g>
</g>
<g>
</g>
<g>
</g>
<g>
</g>
<g>
</g>
<g>
</g>
<g>
</g>
<g>
</g>
<g>
</g>
</svg>
