<?xml version="1.0" encoding="iso-8859-1"?>
<!-- Generator: Adobe Illustrator 19.0.0, SVG Export Plug-In . SVG Version: 6.00 Build 0)  -->
<svg version="1.1" id="Layer_1" xmlns="http://www.w3.org/2000/svg" xmlns:xlink="http://www.w3.org/1999/xlink" x="0px" y="0px"
	 viewBox="0 0 511.999 511.999" style="enable-background:new 0 0 511.999 511.999;" xml:space="preserve">
<path style="fill:#12C5DE;" d="M358.648,160.842H153.352c-8.284,0-15,6.716-15,15v320.723c0,8.284,6.716,15,15,15h205.296
	c8.284,0,15-6.716,15-15V175.842C373.648,167.558,366.932,160.842,358.648,160.842z"/>
<path style="fill:#69E7F5;" d="M256,160.842H153.352c-8.284,0-15,6.716-15,15v320.723c0,8.284,6.716,15,15,15H256V160.842z"/>
<path style="fill:#232575;" d="M256,202.962c-39.891,0-72.344,32.454-72.344,72.344S216.11,347.65,256,347.65
	s72.344-32.454,72.344-72.344S295.891,202.962,256,202.962z"/>
<path style="fill:#6A8092;" d="M256,232.945c-23.358,0-42.362,19.004-42.362,42.362s19.004,42.362,42.362,42.362
	s42.362-19.004,42.362-42.362C298.362,251.948,279.358,232.945,256,232.945z"/>
<path style="fill:#9EACBA;" d="M256,232.945c-23.358,0-42.362,19.004-42.362,42.362s19.004,42.362,42.362,42.362V232.945z"/>
<path style="fill:#D9150B;" d="M491.163,403.996H20.836C9.329,403.996,0,413.325,0,424.833v65.896
	c0,11.508,9.329,20.836,20.836,20.836h470.327c11.508,0,20.836-9.329,20.836-20.836v-65.895
	C512,413.325,502.671,403.996,491.163,403.996z"/>
<path style="fill:#FF4429;" d="M256,403.996H20.836C9.329,403.996,0,413.325,0,424.833v65.896c0,11.508,9.329,20.836,20.836,20.836
	H256V403.996z"/>
<g>
	<path style="fill:#FFBD52;" d="M407.091,253.272c3.087,0,6.203-0.95,8.88-2.921l25.262-18.597
		c6.671-4.911,8.099-14.301,3.187-20.972c-4.911-6.671-14.301-8.1-20.972-3.187l-25.262,18.597
		c-6.671,4.911-8.099,14.301-3.187,20.972C397.939,251.158,402.484,253.272,407.091,253.272z"/>
	<path style="fill:#FFBD52;" d="M441.233,323.404l-25.262-18.597c-6.672-4.912-16.062-3.484-20.972,3.187
		c-4.912,6.671-3.484,16.061,3.187,20.972l25.262,18.597c2.678,1.971,5.792,2.921,8.88,2.921c4.606,0,9.152-2.115,12.092-6.108
		C449.332,337.705,447.905,328.315,441.233,323.404z"/>
	<path style="fill:#FFBD52;" d="M453.932,262.579H424.98c-8.284,0-15,6.716-15,15s6.716,15,15,15h28.952c8.284,0,15-6.716,15-15
		S462.216,262.579,453.932,262.579z"/>
</g>
<g>
	<path style="fill:#FFDB58;" d="M96.029,304.807l-25.262,18.597c-6.671,4.911-8.099,14.301-3.187,20.972
		c2.94,3.994,7.485,6.108,12.092,6.108c3.087,0,6.203-0.95,8.88-2.921l25.262-18.597c6.671-4.911,8.099-14.301,3.187-20.972
		C112.09,301.323,102.701,299.895,96.029,304.807z"/>
	<path style="fill:#FFDB58;" d="M113.814,226.191l-25.262-18.597c-6.672-4.913-16.062-3.484-20.972,3.187
		c-4.912,6.671-3.484,16.061,3.187,20.972l25.262,18.597c2.678,1.971,5.792,2.921,8.88,2.921c4.606,0,9.152-2.115,12.092-6.108
		C121.913,240.492,120.485,231.103,113.814,226.191z"/>
	<path style="fill:#FFDB58;" d="M102.02,277.579c0-8.284-6.716-15-15-15H58.068c-8.284,0-15,6.716-15,15s6.716,15,15,15H87.02
		C95.304,292.579,102.02,285.863,102.02,277.579z"/>
</g>
<g>
	<path style="fill:#CFDBE6;" d="M256,86.99c-11.432,0-22.179,4.452-30.263,12.535c-5.858,5.858-5.858,15.355,0,21.213
		c5.857,5.858,15.355,5.857,21.213,0c2.417-2.417,5.632-3.749,9.05-3.749c3.419,0,6.633,1.332,9.05,3.749
		c2.929,2.929,6.768,4.394,10.606,4.394s7.678-1.465,10.606-4.393c5.858-5.858,5.858-15.355,0-21.213
		C278.18,91.442,267.433,86.99,256,86.99z"/>
	<path style="fill:#CFDBE6;" d="M203.889,64.706c-5.858,5.858-5.858,15.355,0,21.213c2.929,2.929,6.768,4.394,10.606,4.394
		s7.678-1.464,10.606-4.394c17.037-17.036,44.759-17.037,61.796,0c5.857,5.857,15.355,5.857,21.213,0
		c5.858-5.858,5.858-15.355,0-21.213C279.376,35.972,232.622,35.973,203.889,64.706z"/>
	<path style="fill:#CFDBE6;" d="M332.494,32.069c-42.178-42.18-110.81-42.178-152.987,0c-5.858,5.858-5.858,15.355,0,21.213
		c5.857,5.858,15.355,5.858,21.213,0c30.481-30.48,80.078-30.482,110.562,0c2.929,2.929,6.768,4.394,10.606,4.394
		s7.678-1.464,10.606-4.394C338.352,47.424,338.352,37.927,332.494,32.069z"/>
</g>
<circle style="fill:#232575;" cx="60.42" cy="457.78" r="22.751"/>
<path style="fill:#365E94;" d="M60.423,480.532c-12.565,0-22.751-10.186-22.751-22.751s10.186-22.751,22.751-22.751V480.532z"/>
<circle style="fill:#232575;" cx="122.88" cy="457.78" r="22.751"/>
<path style="fill:#365E94;" d="M122.876,480.532c-12.565,0-22.751-10.186-22.751-22.751s10.186-22.751,22.751-22.751V480.532z"/>
<circle style="fill:#232575;" cx="389.12" cy="457.78" r="22.751"/>
<path style="fill:#365E94;" d="M389.124,480.532c-12.565,0-22.751-10.186-22.751-22.751s10.186-22.751,22.751-22.751V480.532z"/>
<circle style="fill:#232575;" cx="451.58" cy="457.78" r="22.751"/>
<path style="fill:#365E94;" d="M451.577,480.532c-12.565,0-22.751-10.186-22.751-22.751s10.186-22.751,22.751-22.751V480.532z"/>
<g>
</g>
<g>
</g>
<g>
</g>
<g>
</g>
<g>
</g>
<g>
</g>
<g>
</g>
<g>
</g>
<g>
</g>
<g>
</g>
<g>
</g>
<g>
</g>
<g>
</g>
<g>
</g>
<g>
</g>
</svg>
