<?xml version="1.0" encoding="iso-8859-1"?>
<!-- Generator: Adobe Illustrator 19.0.0, SVG Export Plug-In . SVG Version: 6.00 Build 0)  -->
<svg version="1.1" id="Capa_1" xmlns="http://www.w3.org/2000/svg" xmlns:xlink="http://www.w3.org/1999/xlink" x="0px" y="0px"
	 viewBox="0 0 512 512" style="enable-background:new 0 0 512 512;" xml:space="preserve">
<g>
	<path style="fill:#FFEE58;" d="M440.837,376.608c-5.874-5.842-5.899-15.339-0.057-21.211C467.361,328.676,482,293.37,482,255.982
		s-14.639-72.693-41.22-99.415c-5.842-5.873-5.817-15.369,0.057-21.211c5.874-5.841,15.371-5.816,21.213,0.057
		c32.21,32.38,49.95,75.199,49.95,120.568s-17.74,88.189-49.951,120.569C456.208,382.423,446.711,382.451,440.837,376.608z"/>
	<path style="fill:#FFEE58;" d="M393.442,333.825c-5.735-5.978-5.539-15.472,0.439-21.207
		c15.672-15.036,24.303-35.149,24.303-56.637s-8.631-41.601-24.303-56.637c-5.978-5.735-6.174-15.229-0.439-21.207
		c5.735-5.977,15.231-6.174,21.208-0.439c21.625,20.746,33.534,48.547,33.534,78.283s-11.909,57.537-33.534,78.283
		C408.673,339.999,399.178,339.803,393.442,333.825z"/>
	<path style="fill:#FFEE58;" d="M345.079,289.908c-5.028-6.583-3.767-15.996,2.817-21.024c4.114-3.141,6.474-7.845,6.474-12.903
		s-2.359-9.762-6.474-12.903c-6.584-5.028-7.845-14.441-2.817-21.024c5.029-6.583,14.441-7.845,21.025-2.817
		c11.608,8.864,18.266,22.257,18.266,36.743c0,14.486-6.658,27.879-18.266,36.743C359.521,297.753,350.108,296.493,345.079,289.908z
		"/>
</g>
<path style="fill:#F0F4F7;" d="M185,212.985H85c-8.284,0-15-6.715-15-14.999V64.995C70,29.157,99.159,0,135,0s65,29.157,65,64.995
	v132.99C200,206.269,193.284,212.985,185,212.985z"/>
<path style="fill:#C6D5DB;" d="M135,0L135,0v212.985h50c8.284,0,15-6.715,15-14.999V64.995C200,29.157,170.841,0,135,0z"/>
<path style="fill:#40C4FF;" d="M39.379,472.051c-25.086-25.228-39.07-58.574-39.374-93.894C-0.423,328.322,26.76,282.424,70,258.64
	v-75.653h130v75.655c42.824,23.571,70,69.004,70,118.331c0,36.418-14.284,70.556-40.22,96.127
	C176.989,525.148,92.161,525.133,39.379,472.051z"/>
<path style="fill:#32A4EA;" d="M200,258.642v-75.655h-65v329.009c34.262,0.025,68.493-12.979,94.78-38.896
	c25.937-25.571,40.22-59.71,40.22-96.127C270,327.646,242.824,282.213,200,258.642z"/>
<g>
</g>
<g>
</g>
<g>
</g>
<g>
</g>
<g>
</g>
<g>
</g>
<g>
</g>
<g>
</g>
<g>
</g>
<g>
</g>
<g>
</g>
<g>
</g>
<g>
</g>
<g>
</g>
<g>
</g>
</svg>
