<?xml version="1.0" encoding="iso-8859-1"?>
<!-- Generator: Adobe Illustrator 19.0.0, SVG Export Plug-In . SVG Version: 6.00 Build 0)  -->
<svg version="1.1" id="Layer_1" xmlns="http://www.w3.org/2000/svg" xmlns:xlink="http://www.w3.org/1999/xlink" x="0px" y="0px"
	 viewBox="0 0 512.001 512.001" style="enable-background:new 0 0 512.001 512.001;" xml:space="preserve">
<path style="fill:#9EACBA;" d="M235.079,282.651H110.187c-8.344-0.001-15.108,6.763-15.108,15.108v198.128
	c0,8.344,6.763,15.108,15.108,15.108h124.892c4.172,0,7.949-1.691,10.683-4.425c2.734-2.735,4.426-6.51,4.425-10.683V297.758
	C250.187,289.414,243.423,282.651,235.079,282.651z"/>
<path style="fill:#BDCFDF;" d="M172.633,282.651h-62.446c-8.344-0.001-15.108,6.763-15.108,15.108v198.128
	c0,8.344,6.763,15.108,15.108,15.108h62.446V282.651z"/>
<path style="fill:#365E94;" d="M138.388,469.7c-5.563,0-10.072,4.509-10.072,10.072s4.51,10.072,10.072,10.072h15.108
	c2.781,0,5.3-1.128,7.122-2.95c1.823-1.823,2.95-4.341,2.95-7.122c0-5.563-4.51-10.072-10.072-10.072H138.388z"/>
<path style="fill:#232575;" d="M206.878,469.7H191.77c-5.563,0-10.072,4.509-10.072,10.072s4.51,10.072,10.072,10.072h15.108
	c2.781,0,5.3-1.128,7.122-2.95c1.823-1.823,2.95-4.341,2.95-7.122C216.95,474.209,212.44,469.7,206.878,469.7z"/>
<path style="fill:#12C5DE;" d="M261.023,201.722l-38.914-49.528c-4.153-5.285-6.44-11.898-6.44-18.619v-23.588
	c0-13.396-10.898-24.294-24.294-24.294H153.89c-13.396,0-24.294,10.898-24.294,24.294v23.588c0,6.722-2.287,13.334-6.44,18.62
	l-38.914,49.528c-2.213,2.817-3.416,6.296-3.416,9.879v222.055c0,8.831,7.159,15.99,15.99,15.99h151.633
	c8.831,0,15.99-7.159,15.99-15.99V211.601C264.44,208.019,263.237,204.539,261.023,201.722z"/>
<path style="fill:#69E7F5;" d="M172.633,85.693H153.89c-13.396,0-24.294,10.898-24.294,24.294v23.588
	c0,6.722-2.287,13.334-6.44,18.62l-38.914,49.528c-2.213,2.817-3.416,6.296-3.416,9.879v222.055c0,8.831,7.159,15.99,15.99,15.99
	h75.817V85.693z"/>
<path style="fill:#365E94;" d="M415.515,0c-8.648,0-15.658,7.01-15.658,15.658v442.064c0,12.662-10.302,22.964-22.964,22.964
	c-12.662,0-22.964-10.302-22.964-22.964V78.188c0-38.797-31.563-70.36-70.36-70.36h-56.438c-38.796,0-70.36,31.563-70.36,70.36
	v29.326c0,8.648,7.01,15.658,15.658,15.658s15.658-7.01,15.658-15.658V78.188c0-21.529,17.516-39.044,39.045-39.044h56.438
	c21.529,0,39.045,17.515,39.045,39.045v379.532c0,29.93,24.35,54.28,54.28,54.28s54.28-24.35,54.28-54.28V15.658
	C431.173,7.01,424.163,0,415.515,0z"/>
<path style="fill:#6A8092;" d="M215.669,133.575v-23.588c0-13.396-10.898-24.294-24.294-24.294H153.89
	c-13.396,0-24.294,10.898-24.294,24.294v23.588c0,4.09-0.858,8.135-2.457,11.87h90.986
	C216.527,141.71,215.669,137.665,215.669,133.575z"/>
<path style="fill:#9EACBA;" d="M172.633,85.693H153.89c-13.396,0-24.294,10.898-24.294,24.294v23.588
	c0,4.09-0.858,8.135-2.457,11.87h45.493V85.693z"/>
<g>
</g>
<g>
</g>
<g>
</g>
<g>
</g>
<g>
</g>
<g>
</g>
<g>
</g>
<g>
</g>
<g>
</g>
<g>
</g>
<g>
</g>
<g>
</g>
<g>
</g>
<g>
</g>
<g>
</g>
</svg>
