<?xml version="1.0" encoding="iso-8859-1"?>
<!-- Generator: Adobe Illustrator 19.0.0, SVG Export Plug-In . SVG Version: 6.00 Build 0)  -->
<svg version="1.1" id="Layer_1" xmlns="http://www.w3.org/2000/svg" xmlns:xlink="http://www.w3.org/1999/xlink" x="0px" y="0px"
	 viewBox="0 0 512 512" style="enable-background:new 0 0 512 512;" xml:space="preserve">
<path style="fill:#FFDB58;" d="M166.168,189.995h-36.819c-8.384,0-15.182,6.797-15.182,15.182s6.797,15.182,15.182,15.182h36.819
	c8.384,0,15.182-6.797,15.182-15.182S174.552,189.995,166.168,189.995z"/>
<path style="fill:#BDCFDF;" d="M430.153,206.292H15.655C7.009,206.292,0,213.301,0,221.946v55.274
	c0,8.645,7.009,15.655,15.655,15.655h398.844v55.595c0,8.645,7.009,15.655,15.655,15.655h55.274c8.645,0,15.655-7.009,15.655-15.655
	v-71.249C501.082,238.112,469.264,206.292,430.153,206.292z"/>
<path style="fill:#232575;" d="M313.049,138.36c-8.384,0-15.182,6.797-15.182,15.182v37.362c0,8.384,6.797,15.182,15.182,15.182
	c8.384,0,15.182-6.797,15.182-15.182v-37.362C328.23,145.157,321.434,138.36,313.049,138.36z"/>
<path style="fill:#365E94;" d="M313.049,138.36c-8.384,0-15.182,6.797-15.182,15.182v37.362c0,8.384,6.797,15.182,15.182,15.182
	V138.36z"/>
<path style="fill:#D9150B;" d="M352.035,126.99h-77.972c-8.384,0-15.182,6.797-15.182,15.182s6.797,15.182,15.182,15.182h77.972
	c8.384,0,15.182-6.797,15.182-15.182S360.42,126.99,352.035,126.99z"/>
<path style="fill:#FF4429;" d="M313.049,126.99h-38.986c-8.384,0-15.182,6.797-15.182,15.182s6.797,15.182,15.182,15.182h38.986
	V126.99z"/>
<path style="fill:#9EACBA;" d="M387.786,189.683c-2.847-2.839-6.701-4.431-10.719-4.431c-0.015,0-0.03,0-0.046,0l-128.036,0.385
	c-8.367,0.024-15.136,6.814-15.136,15.182v93.281c0,4.034,1.605,7.904,4.462,10.751c2.847,2.839,6.701,4.431,10.719,4.431
	c0.015,0,0.03,0,0.046,0l128.035-0.386c8.367-0.025,15.136-6.815,15.136-15.182v-93.28
	C392.249,196.399,390.643,192.531,387.786,189.683z"/>
<path style="fill:#CFDBE6;" d="M313.047,185.252l-64.061,0.385c-8.367,0.024-15.136,6.814-15.136,15.182v93.281
	c0,4.034,1.605,7.904,4.462,10.751c2.847,2.839,6.701,4.431,10.719,4.431c0.015,0,0.03,0,0.046,0l64.016-0.386L313.047,185.252z"/>
<path style="fill:#365E94;" d="M496.818,338.635h-80.293c-8.384,0-15.182,6.797-15.182,15.182c0,8.384,6.797,15.182,15.182,15.182
	h80.293c8.384,0,15.182-6.797,15.182-15.182C512,345.432,505.203,338.635,496.818,338.635z"/>
<path style="fill:#12C5DE;" d="M456.671,477.853L456.671,477.853c-17.846,0-30.427-17.514-24.727-34.427l15.341-45.519
	c3.029-8.987,15.74-8.987,18.769,0l15.341,45.519C487.098,460.338,474.519,477.853,456.671,477.853z"/>
<path style="fill:#69E7F5;" d="M456.671,477.853L456.671,477.853c-17.846,0-30.427-17.514-24.727-34.427l15.341-45.519
	c1.514-4.494,5.449-6.741,9.384-6.741L456.671,477.853z"/>
<g>
	<path style="fill:#CFDBE6;" d="M147.758,121.75c-11.57,0-22.447,4.506-30.629,12.687c-5.929,5.929-5.929,15.541,0,21.47
		c5.928,5.929,15.541,5.928,21.47,0c2.446-2.446,5.7-3.794,9.16-3.794c3.46,0,6.713,1.348,9.16,3.794
		c2.964,2.964,6.85,4.447,10.734,4.447c3.884,0,7.771-1.483,10.734-4.446c5.929-5.929,5.929-15.541,0-21.47
		C170.206,126.256,159.329,121.75,147.758,121.75z"/>
	<path style="fill:#CFDBE6;" d="M95.017,99.196c-5.929,5.929-5.929,15.541,0,21.47c2.964,2.964,6.85,4.447,10.734,4.447
		s7.771-1.482,10.734-4.447c17.243-17.242,45.301-17.243,62.544,0c5.928,5.928,15.541,5.928,21.47,0
		c5.929-5.929,5.929-15.541,0-21.47C171.418,70.115,124.097,70.115,95.017,99.196z"/>
	<path style="fill:#CFDBE6;" d="M225.178,66.164c-42.689-42.691-112.151-42.689-154.839,0c-5.929,5.929-5.929,15.541,0,21.47
		c5.928,5.929,15.541,5.929,21.47,0c30.85-30.849,81.047-30.851,111.9,0c2.964,2.964,6.85,4.447,10.734,4.447
		s7.771-1.482,10.734-4.447C231.108,81.705,231.108,72.093,225.178,66.164z"/>
</g>
<g>
</g>
<g>
</g>
<g>
</g>
<g>
</g>
<g>
</g>
<g>
</g>
<g>
</g>
<g>
</g>
<g>
</g>
<g>
</g>
<g>
</g>
<g>
</g>
<g>
</g>
<g>
</g>
<g>
</g>
</svg>
