<?xml version="1.0" encoding="iso-8859-1"?>
<!-- Generator: Adobe Illustrator 19.0.0, SVG Export Plug-In . SVG Version: 6.00 Build 0)  -->
<svg version="1.1" id="Layer_1" xmlns="http://www.w3.org/2000/svg" xmlns:xlink="http://www.w3.org/1999/xlink" x="0px" y="0px"
	 viewBox="0 0 512 512" style="enable-background:new 0 0 512 512;" xml:space="preserve">
<path style="fill:#6A8092;" d="M284.325,347.404h-56.65c-8.283,0-14.999,6.715-14.999,14.999v114.434
	c0,8.283,6.715,14.999,14.999,14.999h56.65c8.283,0,14.999-6.715,14.999-14.999V362.402
	C299.324,354.119,292.609,347.404,284.325,347.404z"/>
<path style="fill:#9EACBA;" d="M256,347.404h-28.325c-8.283,0-14.999,6.715-14.999,14.999v114.434
	c0,8.283,6.715,14.999,14.999,14.999H256V347.404z"/>
<path style="fill:#CFDBE6;" d="M372.464,512H139.536v-46.955c0-22.094,17.911-40.005,40.005-40.005h152.917
	c22.094,0,40.005,17.91,40.005,40.005V512H372.464z"/>
<path style="fill:#EFF4F4;" d="M256,512H139.536v-46.955c0-22.094,17.911-40.005,40.005-40.005H256V512z"/>
<path style="fill:#CFDBE6;" d="M256.613,0.001C256.401,0,256.195,0,255.982,0c-50.26,0-97.556,19.497-133.228,54.939
	C86.93,90.531,67.111,137.943,66.947,188.441c-0.339,104.244,84.194,189.328,188.439,189.667c0.21,0,0.415,0.001,0.624,0.001
	c103.957,0,188.706-84.405,189.043-188.44C445.391,85.424,360.858,0.34,256.613,0.001z"/>
<path style="fill:#EFF4F4;" d="M256.613,0.001C256.401,0,256.195,0,255.982,0c-50.26,0-97.556,19.497-133.228,54.939
	C86.93,90.531,67.111,137.943,66.947,188.441c-0.339,104.244,84.194,189.328,188.439,189.667c0.21,0,0.415,0.001,0.624,0.001
	C256.01,378.108,255.982,0,256.613,0.001z"/>
<path style="fill:#12C5DE;" d="M256.377,72.59c-0.129-0.001-0.255-0.001-0.384-0.001c-64.041,0-116.248,51.997-116.457,116.086
	c-0.101,31.107,11.918,60.394,33.844,82.462s51.133,34.277,82.242,34.379c0.129,0.001,0.255,0.001,0.384,0.001
	c64.041,0,116.248-51.998,116.457-116.086C372.672,125.214,320.596,72.799,256.377,72.59z"/>
<path style="fill:#69E7F5;" d="M256.377,72.59c-0.129-0.001-0.255-0.001-0.384-0.001c-64.041,0-116.248,51.997-116.457,116.086
	c-0.101,31.107,11.918,60.394,33.844,82.462s51.133,34.277,82.242,34.379c0.129,0.001,0.255,0.001,0.384,0.001
	C256.006,305.518,255.994,72.59,256.377,72.59z"/>
<path style="fill:#232575;" d="M293.211,152.084c-9.875-9.94-23.03-15.439-37.042-15.485c-0.059,0-0.116,0-0.174,0
	c-13.945,0-27.069,5.41-36.966,15.244c-9.939,9.875-15.438,23.029-15.484,37.041c-0.045,14.011,5.369,27.201,15.243,37.14
	c9.875,9.94,23.029,15.439,37.04,15.485c0.059,0,0.118,0,0.177,0c13.945,0,27.067-5.409,36.964-15.243
	c9.94-9.875,15.439-23.029,15.485-37.041C308.499,175.214,303.086,162.024,293.211,152.084z"/>
<path style="fill:#365E94;" d="M256.17,136.6c-0.059,0-0.116,0-0.174,0c-13.945,0-27.069,5.41-36.966,15.244
	c-9.939,9.875-15.438,23.029-15.484,37.041c-0.045,14.011,5.369,27.201,15.243,37.14c9.875,9.94,23.029,15.439,37.04,15.485
	c0.059,0,0.118,0,0.177,0L256.17,136.6z"/>
<g>
</g>
<g>
</g>
<g>
</g>
<g>
</g>
<g>
</g>
<g>
</g>
<g>
</g>
<g>
</g>
<g>
</g>
<g>
</g>
<g>
</g>
<g>
</g>
<g>
</g>
<g>
</g>
<g>
</g>
</svg>
