<?xml version="1.0" encoding="iso-8859-1"?>
<!-- Generator: Adobe Illustrator 19.0.0, SVG Export Plug-In . SVG Version: 6.00 Build 0)  -->
<svg version="1.1" id="Layer_1" xmlns="http://www.w3.org/2000/svg" xmlns:xlink="http://www.w3.org/1999/xlink" x="0px" y="0px"
	 viewBox="0 0 511.999 511.999" style="enable-background:new 0 0 511.999 511.999;" xml:space="preserve">
<path style="fill:#232575;" d="M368.924,0c-8.293,0-15.017,6.724-15.017,15.017v149.608c0,8.293,6.724,15.017,15.017,15.017
	s15.017-6.724,15.017-15.017V15.017C383.941,6.724,377.217,0,368.924,0z"/>
<g>
	<path style="fill:#9EACBA;" d="M397.85,162.131h-57.852c-8.293,0-15.017,6.724-15.017,15.017v130.265
		c0,8.293,6.724,15.017,15.017,15.017h4.673c37.603,0,68.196-30.593,68.196-68.195v-77.088
		C412.867,168.855,406.143,162.131,397.85,162.131z"/>
	<path style="fill:#9EACBA;" d="M284.591,155.719h-127.76c-8.536-0.001-15.456,6.919-15.455,15.455v325.371
		c0,8.536,6.919,15.455,15.455,15.455h127.761c4.268,0,8.131-1.73,10.928-4.526s4.527-6.661,4.526-10.928V171.174
		C300.047,162.638,293.127,155.719,284.591,155.719z"/>
</g>
<path style="fill:#BDCFDF;" d="M220.711,155.719h-63.881c-8.536-0.001-15.456,6.919-15.455,15.455v325.371
	c0,8.536,6.919,15.455,15.455,15.455h63.881V155.719z"/>
<path style="fill:#FFBD52;" d="M297.213,150.567H144.209c-12.041,0-23.36,4.688-31.874,13.203s-13.203,19.834-13.203,31.874v191.943
	c0,24.855,20.221,45.077,45.077,45.077h153.004c12.428,0,23.697-5.055,31.859-13.217c8.162-8.162,13.217-19.431,13.217-31.859
	V195.644c0-12.041-4.688-23.36-13.203-31.874C320.573,155.256,309.253,150.567,297.213,150.567z"/>
<path style="fill:#FFDB58;" d="M220.711,150.567h-76.502c-12.041,0-23.36,4.688-31.874,13.203s-13.203,19.834-13.203,31.874v191.943
	c0,24.855,20.221,45.077,45.077,45.077h76.502V150.567z"/>
<path style="fill:#365E94;" d="M193.779,457.255h-14.972c-6.389,0-11.569,5.18-11.569,11.569s5.18,11.569,11.569,11.569h14.972
	c6.389,0,11.569-5.18,11.569-11.569S200.168,457.255,193.779,457.255z"/>
<path style="fill:#232575;" d="M262.615,457.255h-14.972c-6.389,0-11.569,5.18-11.569,11.569s5.18,11.569,11.569,11.569h14.972
	c6.389,0,11.569-5.18,11.569-11.569S269.004,457.255,262.615,457.255z"/>
<g>
	<path style="fill:#12C5DE;" d="M220.711,307.19c-11.778,0-22.851,4.586-31.18,12.916c-6.036,6.036-6.036,15.821,0,21.857
		c6.035,6.036,15.821,6.035,21.856,0c2.49-2.491,5.803-3.862,9.325-3.862c3.523,0,6.834,1.372,9.325,3.862
		c3.017,3.018,6.973,4.527,10.928,4.527c3.956,0,7.911-1.51,10.928-4.526c6.036-6.036,6.036-15.821,0-21.857
		C243.563,311.777,232.491,307.19,220.711,307.19z"/>
	<path style="fill:#12C5DE;" d="M167.019,284.231c-6.036,6.036-6.036,15.821,0,21.856c3.017,3.018,6.973,4.527,10.928,4.527
		s7.911-1.509,10.928-4.527c17.554-17.553,46.116-17.553,63.67,0.001c6.035,6.035,15.821,6.035,21.856-0.001
		c6.036-6.036,6.036-15.821,0-21.857C244.797,254.625,196.623,254.626,167.019,284.231z"/>
	<path style="fill:#12C5DE;" d="M299.525,250.604c-43.457-43.459-114.171-43.457-157.627,0c-6.036,6.036-6.036,15.821,0,21.856
		c6.035,6.036,15.821,6.036,21.856,0c31.406-31.405,82.507-31.407,113.914,0c3.017,3.018,6.973,4.527,10.928,4.527
		c3.956,0,7.911-1.509,10.928-4.527C305.561,266.425,305.561,256.64,299.525,250.604z"/>
</g>
<g>
</g>
<g>
</g>
<g>
</g>
<g>
</g>
<g>
</g>
<g>
</g>
<g>
</g>
<g>
</g>
<g>
</g>
<g>
</g>
<g>
</g>
<g>
</g>
<g>
</g>
<g>
</g>
<g>
</g>
</svg>
