<?xml version="1.0" encoding="iso-8859-1"?>
<!-- Generator: Adobe Illustrator 19.0.0, SVG Export Plug-In . SVG Version: 6.00 Build 0)  -->
<svg version="1.1" id="Layer_1" xmlns="http://www.w3.org/2000/svg" xmlns:xlink="http://www.w3.org/1999/xlink" x="0px" y="0px"
	 viewBox="0 0 512 512" style="enable-background:new 0 0 512 512;" xml:space="preserve">
<g>
	<path style="fill:#9EACBA;" d="M497.83,265.547c7.826,0,14.17-6.344,14.17-14.17v-82.79c0-4.688-2.277-8.845-5.785-11.424
		c3.508-2.579,5.785-6.735,5.785-11.423V62.447c0-7.826-6.344-14.17-14.17-14.17H256v217.269h241.83V265.547z"/>
	<path style="fill:#9EACBA;" d="M512,145.74V62.447c0-7.826-6.344-14.17-14.17-14.17H14.17C6.344,48.278,0,54.622,0,62.447v84.465
		h16.294v20H0v84.465c0,7.826,6.344,14.17,14.17,14.17h483.66c7.826,0,14.17-6.344,14.17-14.17v-82.79
		c0-4.688-2.277-8.845-5.785-11.424C509.723,154.585,512,150.428,512,145.74z"/>
</g>
<path style="fill:#BDCFDF;" d="M268.156,48.278H14.17C6.344,48.278,0,54.622,0,62.447v84.465h16.294v20H0v84.465
	c0,7.826,6.344,14.17,14.17,14.17h253.986V48.278z"/>
<path style="fill:#FFDB58;" d="M78,189.609H48c-5.522,0-10,4.477-10,10s4.478,10,10,10h30c5.522,0,10-4.477,10-10
	S83.522,189.609,78,189.609z"/>
<rect x="13" y="146.91" style="fill:#232575;" width="255.16" height="20"/>
<rect x="13" y="146.91" style="fill:#6A8092;" width="121.08" height="20"/>
<circle style="fill:#CFDBE6;" cx="440.62" cy="183" r="22.385"/>
<path style="fill:#12C5DE;" d="M437.526,419.534l-20.67-100.292c-10.703-51.927-61.137-85.707-113.04-76.137l-9.463,6.755
	c-1.696,1.211-3.727,1.861-5.811,1.861h-65.085c-2.084,0-4.115-0.651-5.811-1.861l-9.463-6.755
	c-51.905-9.572-102.337,24.209-113.04,76.137l-20.67,100.292c-1.681,8.154-1.441,16.369,0.497,24.097
	c4.741,18.901,27.656,26.353,42.812,14.104c23.842-19.269,55.256-44.48,55.686-44.825c1.775-1.424,3.983-2.201,6.259-2.201h152.545
	c2.275,0,4.483,0.776,6.259,2.201c0.431,0.345,31.844,25.556,55.686,44.825c15.156,12.249,38.07,4.797,42.812-14.104
	C438.968,435.903,439.207,427.688,437.526,419.534z"/>
<path style="fill:#69E7F5;" d="M258.996,251.722h-35.539c-2.084,0-4.115-0.651-5.811-1.861l-9.463-6.755
	c-51.905-9.572-102.337,24.209-113.04,76.137l-20.67,100.292c-1.681,8.154-1.441,16.369,0.497,24.097
	c4.741,18.901,27.656,26.353,42.812,14.104c23.842-19.269,55.256-44.48,55.686-44.825c1.775-1.424,3.983-2.201,6.259-2.201h79.269
	V251.722z"/>
<g>
	<circle style="fill:#BDCFDF;" cx="356.5" cy="306.41" r="14.5"/>
	<circle style="fill:#BDCFDF;" cx="356.5" cy="352.41" r="14.5"/>
	<circle style="fill:#BDCFDF;" cx="379.5" cy="329.41" r="14.5"/>
	<circle style="fill:#BDCFDF;" cx="333.5" cy="329.41" r="14.5"/>
</g>
<circle style="fill:#6A8092;" cx="149.62" cy="321" r="26.09"/>
<g>
	<polygon style="fill:#232575;" points="186.122,276.243 204.192,298.701 308.942,298.701 327.012,276.243 	"/>
	<circle style="fill:#232575;" cx="294.25" cy="369" r="26.09"/>
	<path style="fill:#232575;" d="M239.438,355.583h-10.311c-1.824,0-3.302-1.479-3.302-3.302V341.97c0-1.824-1.479-3.302-3.302-3.302
		H206.47c-1.824,0-3.302,1.479-3.302,3.302v10.311c0,1.824-1.479,3.302-3.302,3.302h-10.311c-1.824,0-3.302,1.479-3.302,3.302
		v16.053c0,1.824,1.479,3.302,3.302,3.302h10.311c1.824,0,3.302,1.479,3.302,3.302v10.311c0,1.824,1.479,3.302,3.302,3.302h16.053
		c1.824,0,3.302-1.479,3.302-3.302v-10.311c0-1.824,1.479-3.302,3.302-3.302h10.311c1.824,0,3.302-1.479,3.302-3.302v-16.053
		C242.74,357.062,241.262,355.583,239.438,355.583z"/>
</g>
<g>
</g>
<g>
</g>
<g>
</g>
<g>
</g>
<g>
</g>
<g>
</g>
<g>
</g>
<g>
</g>
<g>
</g>
<g>
</g>
<g>
</g>
<g>
</g>
<g>
</g>
<g>
</g>
<g>
</g>
</svg>
